PathFileType	4	(X/Y/Z)	C249e_D251_DD_1_S001_6.trc
DataRate	CameraRate	NumFrames	NumMarkers	Units	OrigDataRate	OrigDataStartFrame	OrigNumFrames
50.0	50.0	4	54	mm	50.0	206	274
Frame#	Time		Q_WaistRFront		Q_WaistLFront		Q_WaistL		Q_WaistR		Q_WaistBack		Q_LThighFrontLow		Q_RThighFrontLow		Q_RKneeIn		Q_RKneeOut		Q_RShinFrontHigh		Q_LKneeIn		Q_LKneeOut		Q_LShinFrontHigh		Q_RForefoot5		Q_RForefoot2		Q_RHeelBack		Q_RAnkleOut		Q_LForefoot5		Q_LForefoot2		Q_LHeelBack		Q_LAnkleOut		Q_SpineThoracic2		Q_Chest		Q_SpineThoracic12		Q_HeadL		Q_HeadR		Q_HeadFront		Q_LShoulderTop		Q_LArm		Q_LElbowOut		Q_LElbowIn		Q_LWristOut		Q_LWristIn		Q_LHand2		Q_RShoulderTop		Q_RArm		Q_RElbowOut		Q_RElbowIn		Q_RWristOut		Q_RWristIn		Q_RHand2		RHipAngles		LHipAngles		RKneeAngles		LKneeAngles		RAnkleAngles		LAnkleAngles		RShoulderAngles		LShoulderAngles		RElbowAngles		LElbowAngles		RWristAngles		LWristAngles		Neck
			X1	Y1	Z1	X2	Y2	Z2	X3	Y3	Z3	X4	Y4	Z4	X5	Y5	Z5	X6	Y6	Z6	X7	Y7	Z7	X8	Y8	Z8	X9	Y9	Z9	X10	Y10	Z10	X11	Y11	Z11	X12	Y12	Z12	X13	Y13	Z13	X14	Y14	Z14	X15	Y15	Z15	X16	Y16	Z16	X17	Y17	Z17	X18	Y18	Z18	X19	Y19	Z19	X20	Y20	Z20	X21	Y21	Z21	X22	Y22	Z22	X23	Y23	Z23	X24	Y24	Z24	X25	Y25	Z25	X26	Y26	Z26	X27	Y27	Z27	X28	Y28	Z28	X29	Y29	Z29	X30	Y30	Z30	X31	Y31	Z31	X32	Y32	Z32	X33	Y33	Z33	X34	Y34	Z34	X35	Y35	Z35	X36	Y36	Z36	X37	Y37	Z37	X38	Y38	Z38	X39	Y39	Z39	X40	Y40	Z40	X41	Y41	Z41	X42	Y42	Z42	X43	Y43	Z43	X44	Y44	Z44	X45	Y45	Z45	X46	Y46	Z46	X47	Y47	Z47	X48	Y48	Z48	X49	Y49	Z49	X50	Y50	Z50	X51	Y51	Z51	X52	Y52	Z52	X53	Y53	Z53	X54	Y54	Z54

206	4.10000	156.61053	819.63281	167.70441	-99.81553	821.46307	162.27113	-100.96125	845.34912	224.39046	155.46480	843.51886	229.82373	27.25178	844.43396	227.10709	-106.96457	470.38852	207.72028	156.38225	470.83832	193.90276	111.43089	408.78757	202.41214	249.33751	432.60739	206.20483	214.75914	222.78185	197.39674	-63.32159	405.13351	219.05156	-199.50601	437.29929	223.43057	-177.99219	226.66199	201.77209	320.51065	40.27680	140.08966	270.97818	43.94152	134.33609	253.86699	35.71442	276.40662	308.58969	69.44592	264.77304	-293.55310	40.11873	135.73032	-244.15340	44.81631	129.59807	-226.01718	39.57370	271.68292	-281.57263	71.82020	259.78827	25.89006	1311.75378	307.83209	30.89010	742.53088	27.42677	25.89006	1311.75378	307.83209	-46.90080	1485.94934	191.88943	93.06973	1486.96484	194.57597	24.47015	1479.76733	123.56690	-106.21025	1355.25745	224.23564	-231.11842	1398.66248	164.04967	-267.53787	1498.25732	162.83833	-248.45639	1465.18701	70.41407	-243.07790	1691.92065	27.71120	-195.33618	1684.12354	40.35763	-138.20775	1750.72375	35.38632	150.46593	1359.42822	218.79305	260.82739	1407.30176	139.53647	290.98300	1508.58545	130.63461	259.15726	1472.09619	43.13808	247.22784	1697.06665	-6.92794	201.76425	1689.88513	12.60380	152.73862	1763.53210	15.58926	-26.18641	7.44138	-0.32860	-22.80882	7.42129	2.24156	-8.67205	2.75235	0.22219	-1.58111	5.53578	0.28353	-5.82677	5.97681	-13.73542	-0.52435	5.97509	-18.53762	-34.33040	87.37248	-57.64980	30.83987	-82.71320	-55.17762	-39.43683	-82.71320	19.18035	-43.67039	-0.00000	19.18035	17.01103	21.26547	19.18035	6.01993	27.69378	-0.00000	-21.22265	-0.18706	3.84449
207	4.12000	155.96523	819.62793	165.52928	-100.47700	821.48706	160.93796	-101.42107	845.01794	223.19604	155.02115	843.15881	227.78737	26.80004	844.08838	225.49171	-107.40097	469.73151	208.85370	155.37157	469.90009	194.48190	110.31993	407.67090	203.50874	248.14665	431.94244	207.34013	214.28517	222.05945	197.21573	-63.66396	404.62830	220.69795	-199.86214	436.72131	225.18039	-178.25780	226.16351	202.84990	320.78693	40.35290	138.72455	271.22690	43.69069	133.00934	254.23766	34.63345	275.04398	308.71182	68.81428	263.55655	-293.89832	40.14897	136.18599	-244.47484	44.62896	130.08257	-226.40161	38.79636	272.15244	-281.79718	71.35331	260.35822	25.84043	1310.59619	308.88043	29.81099	742.97876	25.22320	25.84043	1310.59619	308.88043	-45.94569	1485.40271	194.10048	94.03015	1485.43042	196.69998	25.33596	1477.89917	125.81709	-106.34174	1354.11780	226.33189	-230.64149	1398.63843	167.09955	-265.88400	1498.65833	166.10963	-248.39822	1465.14465	73.52949	-242.86392	1691.68286	29.82057	-194.95602	1683.75757	41.73792	-136.54651	1749.11047	36.93512	150.68074	1358.05908	220.54601	260.76831	1406.83191	142.34081	290.40979	1508.33752	134.27963	259.48602	1472.19104	46.31854	247.85292	1697.36084	-2.91431	202.20428	1690.05823	16.13492	152.15884	1761.64551	25.08414	-25.30312	7.35105	-0.04158	-21.96057	7.38418	2.32160	-7.72534	3.06246	0.18597	-0.84803	5.51288	0.10071	-5.76980	5.97779	-13.51869	-0.58697	5.96199	-18.23500	-34.18401	87.00486	-57.92311	30.85133	-81.81475	-55.44334	-39.19818	-81.81475	17.29543	-43.29470	-0.00000	17.29543	19.27639	23.41354	17.29543	5.48906	28.65686	-0.00000	-22.23177	-0.11913	4.19218
208	4.14000	155.60997	820.13776	163.40607	-100.83052	821.94757	158.69804	-101.81194	845.15643	221.07632	154.62856	843.34662	225.78436	26.40830	844.25153	223.43034	-107.55353	469.59512	208.76219	154.81070	469.58386	195.03786	109.68839	407.23962	204.81599	247.45535	431.90173	208.28712	214.16995	221.94403	197.80693	-63.70315	404.68542	220.99376	-199.94727	436.56482	225.60269	-178.03738	226.08652	202.82484	320.71405	40.10412	138.59427	271.14709	43.64834	133.06664	254.64883	34.51755	275.15445	309.21811	68.48898	263.49835	-293.67380	40.27271	135.88330	-244.23788	44.56070	129.74281	-226.06744	38.48943	271.79028	-281.34140	71.28302	260.08136	25.44731	1309.91699	309.65738	29.52702	744.09692	22.43332	25.44731	1309.91699	309.65738	-45.67292	1484.89392	195.62073	94.29539	1484.78076	198.59691	25.78186	1476.46155	127.62729	-105.81371	1354.84155	227.26363	-230.13606	1400.28223	168.28539	-264.54291	1500.59192	167.22678	-247.90498	1466.67517	74.63720	-240.73425	1693.03638	30.25452	-192.82277	1684.74109	41.90263	-133.87326	1750.06799	37.84285	150.72578	1357.66553	221.74387	260.30682	1408.14404	144.99072	288.89233	1510.04126	138.14824	259.20557	1474.37671	49.56650	247.02110	1699.83496	1.80935	201.18564	1692.16785	20.25728	153.18866	1764.41504	36.60373	-24.45640	7.29832	0.13605	-21.21871	7.33408	2.49330	-7.00169	3.29085	-0.10624	-0.27285	5.46534	0.03455	-5.65998	5.94115	-13.91871	-0.57305	5.96964	-17.91493	-34.01110	86.89816	-58.62669	31.00327	-81.02730	-55.54589	-38.89782	-81.02730	15.24366	-43.41912	-0.00000	15.24366	22.86857	23.24647	15.24366	5.09717	28.65308	-0.00000	-23.31749	-0.10874	4.49627
209	4.16000	154.96449	820.25616	161.42509	-101.48917	821.90820	157.43166	-102.31503	844.78973	219.93298	154.13863	843.13776	223.92642	25.91180	843.96375	221.92970	-107.83884	469.06033	208.70442	154.37016	469.04288	194.78505	109.28589	406.54926	205.06371	246.98059	431.65979	208.16646	214.35301	221.60147	197.63303	-63.86000	404.27908	221.16577	-200.13295	435.99924	226.01543	-178.01816	225.55540	203.11697	320.93741	39.66971	137.92639	271.37762	43.56189	132.57126	255.29167	34.28265	274.69669	310.05225	67.90267	262.91959	-293.54611	40.24382	136.11101	-244.09842	44.39093	129.96867	-225.90404	37.80120	271.98996	-281.07465	70.81199	260.40475	24.93091	1308.81445	310.66251	28.66755	744.56348	20.36343	24.93091	1308.81445	310.66251	-45.48796	1484.27466	198.07819	94.49589	1483.39062	200.01221	25.40667	1474.89783	129.62366	-105.92921	1354.36304	228.54185	-230.39343	1399.84802	169.35049	-264.74835	1500.17444	168.19693	-248.22621	1466.12781	75.63432	-240.62151	1692.42773	31.01203	-192.72092	1684.04785	42.64439	-134.16953	1750.37317	39.24325	150.60832	1356.49390	223.45451	260.34430	1407.70154	148.00420	288.15808	1509.84094	141.60744	260.33954	1473.88391	52.53884	246.32562	1699.21240	4.67087	200.28647	1691.00476	22.36356	153.24063	1764.37366	40.21852	-23.78353	7.27583	0.26244	-20.64961	7.31899	2.60544	-6.57018	3.47332	-0.18399	0.04002	5.43489	-0.11566	-5.65756	5.94733	-14.50162	-0.78213	5.92562	-17.66789	-33.97725	85.90295	-58.75241	31.17352	-80.54213	-55.29963	-39.12268	-80.54213	14.43582	-43.62014	-0.00000	14.43582	24.02339	22.17486	14.43582	4.83474	28.11712	-0.00000	-24.10018	-0.50256	4.57959
